<?xml version="1.0" encoding="UTF-8"?>
<svg width="160px" height="160px" viewBox="0 0 160 160" version="1.1" xmlns="http://www.w3.org/2000/svg" xmlns:xlink="http://www.w3.org/1999/xlink">
    <title>windowbar-tongyi-icon</title>
    <g id="IDE-端插件优化" stroke="none" stroke-width="1" fill="none" fill-rule="evenodd">
        <g id="VSC" transform="translate(-309.000000, -418.000000)" fill="#FFFFFF" fill-rule="nonzero">
            <g id="windowbar-tongyi-icon" transform="translate(309.000000, 418.000000)">
                <path d="M159.511982,97.1649486 L141.004543,64.7766324 L138.827473,60.9574798 L148.631319,43.8244768 C148.968776,43.2270946 149.138677,42.5869999 149.138677,41.9256082 C149.138677,41.2642165 148.968776,40.6027065 148.631319,40.0266213 L137.750655,20.9734526 C137.412026,20.3760704 136.92693,19.9067071 136.37739,19.5866598 C135.806759,19.2666124 135.172854,19.074584 134.496767,19.074584 L93.0872061,19.074584 L83.2841805,1.9202603 C82.6080936,0.725429564 81.3614924,0 80.0094358,0 L58.2270174,0 C57.5509305,0 56.8960519,0.170689936 56.3467459,0.512068624 C55.7762317,0.832111218 55.3115245,1.32284256 54.973481,1.89891592 L36.4658072,34.2871848 L34.2897917,38.0850403 L14.6624149,38.0850403 C13.986328,38.0850403 13.3313322,38.2557716 12.7820262,38.597116 C12.2116292,38.9171634 11.7257137,39.407942 11.4087848,39.9840272 L0.528184394,59.0371959 C0.169019381,59.6345781 0,60.2960881 0,60.9574798 C0,61.6188716 0.169019381,62.2802633 0.507056971,62.8563484 L21.2119042,99.0425202 L11.4087848,116.19682 C11.0707531,116.794202 10.9017313,117.434297 10.9017313,118.095689 C10.9017313,118.757081 11.0707531,119.418472 11.4087848,119.994676 L22.289425,139.048436 C22.6274685,139.644753 23.1133839,140.114472 23.6626899,140.435111 C24.233087,140.754566 24.8668745,140.94624 25.5429614,140.94624 L66.9315483,140.94624 L76.7346912,158.101013 C77.4107781,159.274717 78.657262,160 80.0094358,160 L101.791737,160 C102.467824,160 103.122703,159.829624 103.672009,159.487688 C104.242523,159.168232 104.707347,158.677217 105.045391,158.101013 L125.74982,121.91496 L145.35634,121.91496 C146.032426,121.91496 146.687422,121.723286 147.236963,121.402647 C147.807594,121.083192 148.271598,120.592176 148.610227,120.015973 L159.490891,100.962804 C159.828349,100.365422 159.998249,99.7253272 159.998249,99.0638172 C160.01934,98.4024255 159.84944,97.7410338 159.511982,97.1649486 Z M58.2270174,3.81917622 L69.1287722,22.8724395 L58.2270174,41.9256082 L145.35634,41.9256082 L134.475676,60.9787769 L51.6987364,60.9787769 L38.64194,38.1277527 L58.2270174,3.81917622 Z M64.7554156,137.170746 L25.5641697,137.170746 L36.4658072,118.117104 L58.2482257,118.117104 L14.6624149,41.9043112 L36.4447161,41.9043112 L47.3253798,60.9574798 L77.8333031,114.297952 L64.7554156,137.170746 Z M134.454585,99.0639355 L123.573921,80.0106485 L80.0094358,156.223323 L69.1076811,137.170746 L80.0094358,118.117104 L110.496151,64.7766324 L136.630483,64.7766324 L156.237003,99.0639355 L134.454585,99.0639355 Z" id="Shape"></path>
            </g>
        </g>
    </g>
</svg>