<?xml version="1.0" encoding="UTF-8"?><svg width="40px" height="40px" viewBox="0 0 40 40" version="1.1" xmlns="http://www.w3.org/2000/svg" xmlns:xlink="http://www.w3.org/1999/xlink"><title>tongyi-light</title><g id="IDE-端插件优化" stroke="none" stroke-width="1" fill="none" fill-rule="evenodd" fill-opacity="0.1"><g id="Artboard" transform="translate(-309.000000, -134.000000)" fill="#000000" fill-rule="nonzero"><g id="tongyi-light" transform="translate(309.000000, 134.000000)"><path d="M39.8779956,24.2912372 L35.2511357,16.1941581 L34.7068682,15.23937 L37.1578296,10.9561192 C37.242194,10.8067736 37.2846692,10.64675 37.2846692,10.4814021 C37.2846692,10.3160541 37.242194,10.1506766 37.1578296,10.0066553 L34.4376637,5.24336316 C34.3530064,5.0940176 34.2317326,4.97667677 34.0943475,4.89666494 C33.9516896,4.81665311 33.7932135,4.76864601 33.6241918,4.76864601 L23.2718015,4.76864601 L20.8210451,0.480065074 C20.6520234,0.181357391 20.3403731,0 20.002359,0 L14.5567543,0 C14.3877326,0 14.224013,0.0426724839 14.0866865,0.128017156 C13.9440579,0.208027804 13.8278811,0.330710641 13.7433703,0.47472898 L9.11645181,8.5717962 L8.57244792,9.52126008 L3.66560372,9.52126008 C3.496582,9.52126008 3.33283305,9.56394291 3.19550656,9.64927901 C3.0529073,9.72929084 2.93142842,9.85198551 2.8521962,9.9960068 L0.132046098,14.759299 C0.0422548452,14.9086445 0,15.074022 0,15.23937 C0,15.4047179 0.0422548452,15.5700658 0.126764243,15.7140871 L5.30297605,24.76063 L2.8521962,29.0492051 C2.76768826,29.1985506 2.72543283,29.3585743 2.72543283,29.5239222 C2.72543283,29.6892701 2.76768826,29.8546181 2.8521962,29.9986689 L5.57235625,34.762109 C5.65686711,34.9111883 5.77834599,35.0286179 5.91567248,35.1087776 C6.05827174,35.1886416 6.21671862,35.2365599 6.38574035,35.2365599 L16.7328871,35.2365599 L19.1836728,39.5252533 C19.3526945,39.8186793 19.6643155,40 20.002359,40 L25.4479343,40 C25.616956,40 25.7806756,39.9574059 25.9180021,39.8719219 C26.0606307,39.792058 26.1768368,39.6693041 26.2613477,39.5252533 L31.4374549,30.4787399 L36.3390849,30.4787399 C36.5081066,30.4787399 36.6718556,30.4308216 36.8092406,30.3506618 C36.9518985,30.2707979 37.0678995,30.1480441 37.1525569,30.0039932 L39.8727228,25.240701 C39.9570872,25.0913555 39.9995623,24.9313318 39.9995623,24.7659543 C40.0048351,24.6006064 39.96236,24.4352584 39.8779956,24.2912372 Z M14.5567543,0.954794055 L17.282193,5.71810989 L14.5567543,10.4814021 L36.3390849,10.4814021 L33.618919,15.2446942 L12.9246841,15.2446942 L9.66048499,9.53193818 L14.5567543,0.954794055 Z M16.1888539,34.2926865 L6.39104241,34.2926865 L9.11645181,29.529276 L14.5620564,29.529276 L3.66560372,10.4760778 L9.11117904,10.4760778 L11.831345,15.23937 L19.4583258,28.5744879 L16.1888539,34.2926865 Z M33.6136462,24.7659839 L30.8934803,20.0026621 L20.002359,39.0558308 L17.2769203,34.2926865 L20.002359,29.529276 L27.6240377,16.1941581 L34.1576208,16.1941581 L39.0592508,24.7659839 L33.6136462,24.7659839 Z" id="Shape"></path></g></g></g></svg>